# xmcd CD database file
#
# Track frame offsets:
#	150
#	24297
#	37127
#	56375
#	80792
#	109082
#	131117
#	150450
#	170822
#	190302
#	207860
#
# Disc length: 3030 seconds
#
# Revision: 2
# Processed by: cddbd v1.4PL0 Copyright (c) Steve Scherf et al.
# Submitted via: CDex 1.40Release
#
DISCID=960bd40b
DTITLE=Carly Simon - Have You Seen Me Lately?
DYEAR=1990
DGENRE=Easy Listening
TTITLE0=Better Not Tell Her
TTITLE1=Didn't I
TTITLE2=Have You Seen Me Lately?
TTITLE3=Life If Eternal
TTITLE4=Waiting at the Gate
TTITLE5=Happy Birthday
TTITLE6=Holding Me Tonight
TTITLE7=It's Not Like Them
TTITLE8=Don't Wrap It Up
TTITLE9=Fisherman's Song
TTITLE10=We Just Got Here
EXTD=YEAR: 1990 ID3G: 98
EXTT0=
EXTT1=
EXTT2=
EXTT3=
EXTT4=
EXTT5=
EXTT6=
EXTT7=
EXTT8=
EXTT9=
EXTT10=
PLAYORDER=
